<svg width="80" height="80" viewBox="0 0 80 80" fill="none" xmlns="http://www.w3.org/2000/svg">
<path d="M24.8428 9.04219C26.092 5.87479 30.5747 5.87482 31.8239 9.04222L35.695 18.8577C36.0763 19.8248 36.842 20.5902 37.809 20.9716L47.6243 24.8428C50.792 26.092 50.792 30.5747 47.6243 31.8239L37.809 35.695C36.842 36.0763 36.0763 36.842 35.695 37.809L31.8239 47.6243C30.5747 50.792 26.092 50.792 24.8428 47.6243L20.9716 37.809C20.5902 36.842 19.8248 36.0763 18.8577 35.695L9.0422 31.8239C5.87481 30.5747 5.87484 26.092 9.04224 24.8428L18.8577 20.9716C19.8248 20.5902 20.5902 19.8248 20.9716 18.8577L24.8428 9.04219Z" fill="#759CF2"/>
<path d="M56.415 44.6387C57.1017 42.8983 59.565 42.8983 60.2517 44.6387L63.2537 52.251C63.4633 52.7827 63.884 53.2033 64.4157 53.413L72.028 56.415C73.7683 57.1017 73.7683 59.565 72.028 60.2517L64.4157 63.2537C63.884 63.4633 63.4633 63.884 63.2537 64.4157L60.2517 72.028C59.565 73.7683 57.1017 73.7683 56.415 72.028L53.413 64.4157C53.2033 63.884 52.7827 63.4633 52.251 63.2537L44.6387 60.2517C42.8983 59.565 42.8983 57.1017 44.6387 56.415L52.251 53.413C52.7827 53.2033 53.2033 52.7827 53.413 52.251L56.415 44.6387Z" fill="#A878DB"/>
</svg>
